<svg width="40" height="40" viewBox="0 0 40 40" fill="none" xmlns="http://www.w3.org/2000/svg">
<rect opacity="0.6" width="40" height="40" rx="4" fill="#C489FF"/>
<path opacity="0.8" fill-rule="evenodd" clip-rule="evenodd" d="M20.0041 8C19.7142 8 19.4792 8.23499 19.4792 8.52486V11.674V14.0563C19.3283 14.1068 19.1891 14.1829 19.0728 14.2833L18.9334 14.4037L18.9317 14.4021L13.4195 19.0627C13.2713 19.1876 13.1855 19.3758 13.1855 19.5602V25.0005H8.94744C7.93326 25.0005 7.0918 25.8415 7.0918 26.8562V37.8106C7.0918 38.8252 7.93277 39.6662 8.94744 39.6662H30.9172C31.9319 39.6662 32.7729 38.8252 32.7729 37.8106L32.7726 26.8562C32.7726 25.8415 31.9316 25.0005 30.917 25.0005H26.679V19.5599C26.679 19.3755 26.5932 19.1874 26.4454 19.0624L20.7927 14.284C20.7122 14.2152 20.6233 14.1586 20.529 14.1138V12.1989H25.7776C25.9899 12.1989 26.1813 12.071 26.2625 11.8749C26.3437 11.6788 26.2988 11.453 26.1487 11.3029L24.9453 10.0994L26.1487 8.896C26.2988 8.74589 26.3437 8.52013 26.2625 8.32401C26.1813 8.12788 25.9899 8 25.7776 8H20.0041ZM24.5105 11.1492H20.529V9.04972H24.5105L23.8319 9.72832C23.6269 9.93329 23.6269 10.2656 23.8319 10.4706L24.5105 11.1492ZM18.9353 14.1241L13.2839 18.9024L18.9356 14.1244L18.9353 14.1241ZM19.9297 15.2489L20.0853 15.4085L25.3622 19.8631V38.3489H22.9078L22.9075 30.0107C22.9075 29.848 22.8326 29.6807 22.7058 29.5519C22.5791 29.4232 22.4149 29.3474 22.2541 29.3474H17.6102C17.4495 29.3474 17.2852 29.4232 17.1584 29.5519C17.0315 29.6807 16.9564 29.848 16.9564 30.0107V38.3489H14.5023V19.8631L19.7779 15.4096L19.9297 15.2489ZM9.15702 26.3168L8.94752 26.3164C8.65072 26.3164 8.4084 26.5402 8.4084 26.8555L8.40865 37.8099C8.40865 38.1106 8.64673 38.3487 8.94752 38.3487H13.1855V26.3168H9.15702ZM26.679 26.3168H30.917C31.2144 26.3168 31.4558 26.5408 31.4558 26.8562V37.8106C31.4558 38.1113 31.2181 38.3495 30.917 38.3495H26.679V26.3168ZM18.2737 30.6744H21.5915V38.349H18.2737V30.6744ZM19.9321 20.6536C18.1368 20.6536 16.6687 22.1216 16.6687 23.9169C16.6687 25.713 18.1376 27.1905 19.9321 27.1905C21.7266 27.1905 23.1954 25.7133 23.1954 23.9169C23.1954 22.1214 21.7274 20.6536 19.9321 20.6536ZM19.9321 21.9703C21.0243 21.9703 21.8787 22.8247 21.8787 23.9169C21.8787 25.0072 21.0259 25.8738 19.9321 25.8738C18.8383 25.8738 17.9855 25.0075 17.9855 23.9169C17.9855 22.8247 18.8399 21.9703 19.9321 21.9703Z" fill="#ECECEA"/>
</svg>
