<svg width="40" height="40" viewBox="0 0 40 40" fill="none" xmlns="http://www.w3.org/2000/svg">
<rect width="40" height="40" rx="8" fill="#3E3E3E"/>
<path d="M19.9993 8.5C13.373 8.5 8 13.8935 8 20.5483C8 25.8703 11.438 30.3859 16.2072 31.9792C16.8073 32.0899 17.0262 31.7179 17.0262 31.3987C17.0262 31.1125 17.0157 30.355 17.0098 29.3498C13.6715 30.0779 12.9672 27.7347 12.9672 27.7347C12.422 26.3432 11.6353 25.9727 11.6353 25.9727C10.5455 25.225 11.7178 25.2401 11.7178 25.2401C12.9215 25.3252 13.5553 26.4817 13.5553 26.4817C14.6263 28.3228 16.364 27.7912 17.048 27.4825C17.1568 26.7039 17.4673 26.173 17.81 25.8718C15.1453 25.5676 12.344 24.5346 12.344 19.9181C12.344 18.6026 12.8112 17.5274 13.5792 16.6848C13.4555 16.3799 13.0437 15.1555 13.6962 13.4967C13.6962 13.4967 14.7043 13.173 16.9963 14.7316C17.954 14.4643 18.98 14.331 20.0007 14.3258C21.02 14.331 22.0468 14.4643 23.0052 14.7316C25.2957 13.173 26.3015 13.4967 26.3015 13.4967C26.9563 15.1555 26.5445 16.3799 26.4207 16.6848C27.1903 17.5274 27.6545 18.6026 27.6545 19.9181C27.6545 24.5459 24.8487 25.5646 22.1757 25.8628C22.6062 26.2348 22.9902 26.9697 22.9902 28.0939C22.9902 29.7045 22.9753 31.0034 22.9753 31.3987C22.9753 31.7209 23.1912 32.0959 23.8003 31.9777C28.565 30.3814 32 25.8688 32 20.5483C32 13.8935 26.627 8.5 19.9993 8.5Z" fill="#B2B2B1"/>
</svg>
