<svg width="40" height="40" viewBox="0 0 40 40" fill="none" xmlns="http://www.w3.org/2000/svg">
<path d="M0 8C0 3.58172 3.58172 0 8 0H32C36.4183 0 40 3.58172 40 8V32C40 36.4183 36.4183 40 32 40H8C3.58172 40 0 36.4183 0 32V8Z" fill="#3E3E3E"/>
<path d="M27.875 10.625H12.125C11.7272 10.625 11.3456 10.783 11.0643 11.0643C10.783 11.3456 10.625 11.7272 10.625 12.125V27.875C10.625 28.2728 10.783 28.6544 11.0643 28.9357C11.3456 29.217 11.7272 29.375 12.125 29.375H27.875C28.2728 29.375 28.6544 29.217 28.9357 28.9357C29.217 28.6544 29.375 28.2728 29.375 27.875V12.125C29.375 11.7272 29.217 11.3456 28.9357 11.0643C28.6544 10.783 28.2728 10.625 27.875 10.625ZM17 24.5C17 24.6989 16.921 24.8897 16.7803 25.0303C16.6397 25.171 16.4489 25.25 16.25 25.25C16.0511 25.25 15.8603 25.171 15.7197 25.0303C15.579 24.8897 15.5 24.6989 15.5 24.5V18.5C15.5 18.3011 15.579 18.1103 15.7197 17.9697C15.8603 17.829 16.0511 17.75 16.25 17.75C16.4489 17.75 16.6397 17.829 16.7803 17.9697C16.921 18.1103 17 18.3011 17 18.5V24.5ZM16.25 16.625C16.0275 16.625 15.81 16.559 15.625 16.4354C15.44 16.3118 15.2958 16.1361 15.2106 15.9305C15.1255 15.725 15.1032 15.4988 15.1466 15.2805C15.19 15.0623 15.2972 14.8618 15.4545 14.7045C15.6118 14.5472 15.8123 14.44 16.0305 14.3966C16.2488 14.3532 16.475 14.3755 16.6805 14.4606C16.8861 14.5458 17.0618 14.69 17.1854 14.875C17.309 15.06 17.375 15.2775 17.375 15.5C17.375 15.7984 17.2565 16.0845 17.0455 16.2955C16.8345 16.5065 16.5484 16.625 16.25 16.625ZM25.25 24.5C25.25 24.6989 25.171 24.8897 25.0303 25.0303C24.8897 25.171 24.6989 25.25 24.5 25.25C24.3011 25.25 24.1103 25.171 23.9697 25.0303C23.829 24.8897 23.75 24.6989 23.75 24.5V21.125C23.75 20.6277 23.5525 20.1508 23.2008 19.7992C22.8492 19.4475 22.3723 19.25 21.875 19.25C21.3777 19.25 20.9008 19.4475 20.5492 19.7992C20.1975 20.1508 20 20.6277 20 21.125V24.5C20 24.6989 19.921 24.8897 19.7803 25.0303C19.6397 25.171 19.4489 25.25 19.25 25.25C19.0511 25.25 18.8603 25.171 18.7197 25.0303C18.579 24.8897 18.5 24.6989 18.5 24.5V18.5C18.4995 18.3154 18.567 18.1371 18.6898 17.9993C18.8125 17.8614 18.9817 17.7736 19.1651 17.7527C19.3485 17.7318 19.5331 17.7793 19.6837 17.886C19.8343 17.9928 19.9402 18.1513 19.9813 18.3312C20.4887 17.9872 21.0803 17.788 21.6925 17.7548C22.3047 17.7217 22.9144 17.8559 23.4561 18.1431C23.9977 18.4303 24.4509 18.8597 24.767 19.385C25.083 19.9104 25.25 20.5119 25.25 21.125V24.5Z" fill="#B2B2B1"/>
</svg>
