<svg width="274" height="64" viewBox="0 0 274 64" fill="none" xmlns="http://www.w3.org/2000/svg">
<g opacity="0.8">
<path d="M46.4641 41.024C47.2108 41.024 47.8828 41.2053 48.4801 41.568C49.0774 41.9307 49.5414 42.4587 49.8721 43.152C50.2134 43.8347 50.3841 44.64 50.3841 45.568C50.3841 46.496 50.2134 47.3067 49.8721 48C49.5414 48.6827 49.0774 49.2053 48.4801 49.568C47.8828 49.9307 47.2108 50.112 46.4641 50.112C45.7174 50.112 45.0774 49.936 44.5441 49.584C44.0214 49.2213 43.6481 48.7413 43.4241 48.144V50H41.1681V38.16H43.4241V42.976C43.6481 42.3787 44.0214 41.904 44.5441 41.552C45.0774 41.2 45.7174 41.024 46.4641 41.024ZM45.7601 42.992C45.0774 42.992 44.5121 43.2267 44.0641 43.696C43.6268 44.1547 43.4081 44.7787 43.4081 45.568C43.4081 46.3467 43.6268 46.9707 44.0641 47.44C44.5121 47.8987 45.0774 48.128 45.7601 48.128C46.4641 48.128 47.0294 47.904 47.4561 47.456C47.8828 46.9973 48.0961 46.368 48.0961 45.568C48.0961 44.768 47.8828 44.1387 47.4561 43.68C47.0294 43.2213 46.4641 42.992 45.7601 42.992ZM53.5006 41.136L55.9166 47.152L58.1566 41.136H60.6366L55.2126 54.224H52.7166L54.7166 49.744L50.9886 41.136H53.5006Z" fill="#B2B2B1"/>
<g clip-path="url(#clip0_1_1136)">
<path d="M118.477 24H91.8108C88.1289 24 85.1441 26.9848 85.1441 30.6667V57.3333C85.1441 61.0152 88.1289 64 91.8108 64H118.477C122.159 64 125.144 61.0152 125.144 57.3333V30.6667C125.144 26.9848 122.159 24 118.477 24Z" fill="#6D6D6D" fill-opacity="0.2"/>
<path d="M102.644 41.5H98.6691C97.8924 41.4934 97.135 41.2575 96.4919 40.8218C95.8488 40.3862 95.3488 39.7703 95.0546 39.0514C94.7604 38.3326 94.6852 37.5428 94.8383 36.7813C94.9915 36.0198 95.3662 35.3205 95.9154 34.7713C96.4646 34.2221 97.1639 33.8474 97.9254 33.6942C98.6869 33.5411 99.4767 33.6163 100.196 33.9105C100.914 34.2047 101.53 34.7047 101.966 35.3478C102.402 35.9909 102.638 36.7483 102.644 37.525V41.5ZM98.7025 35.025C98.0306 35.025 97.3862 35.2919 96.9111 35.767C96.436 36.2421 96.1691 36.8865 96.1691 37.5583C96.1691 38.2302 96.436 38.8746 96.9111 39.3497C97.3862 39.8248 98.0306 40.0917 98.7025 40.0917H101.202V37.5917C101.216 37.2522 101.16 36.9136 101.039 36.5964C100.917 36.2792 100.732 35.9901 100.495 35.7468C100.258 35.5035 99.9738 35.311 99.6598 35.1812C99.3459 35.0514 99.0088 34.9869 98.6691 34.9917L98.7025 35.025Z" fill="#B7B7B7"/>
<path d="M111.619 41.5H107.644V37.525C107.651 36.7483 107.887 35.9909 108.322 35.3478C108.758 34.7047 109.374 34.2047 110.093 33.9105C110.812 33.6163 111.601 33.5411 112.363 33.6942C113.124 33.8474 113.824 34.2221 114.373 34.7713C114.922 35.3205 115.297 36.0198 115.45 36.7813C115.603 37.5428 115.528 38.3326 115.234 39.0514C114.939 39.7703 114.439 40.3862 113.796 40.8218C113.153 41.2575 112.396 41.4934 111.619 41.5V41.5ZM109.119 40.0917H111.619C111.952 40.0936 112.282 40.029 112.59 39.9016C112.897 39.7743 113.177 39.5867 113.411 39.35C113.647 39.1158 113.835 38.8367 113.962 38.529C114.09 38.2213 114.154 37.8913 114.152 37.5583C114.152 36.8865 113.886 36.2421 113.41 35.767C112.935 35.2919 112.291 35.025 111.619 35.025C110.947 35.025 110.303 35.2919 109.828 35.767C109.353 36.2421 109.086 36.8865 109.086 37.5583L109.119 40.0917Z" fill="#B7B7B7"/>
<path d="M108.377 40.0583H101.902V41.4667H108.377V40.0583Z" fill="#B7B7B7"/>
<path d="M109.086 40.7583H107.677V47.2333H109.086V40.7583Z" fill="#B7B7B7"/>
<path d="M108.377 46.5333H101.902V47.9417H108.377V46.5333Z" fill="#B7B7B7"/>
<path d="M102.611 40.7583H101.202V47.2333H102.611V40.7583Z" fill="#B7B7B7"/>
<path d="M98.6691 54.4167C97.6237 54.4167 96.6211 54.0014 95.8819 53.2622C95.1427 52.523 94.7274 51.5204 94.7274 50.475C94.7274 49.4296 95.1427 48.427 95.8819 47.6878C96.6211 46.9486 97.6237 46.5333 98.6691 46.5333H102.644V50.475C102.644 50.9954 102.541 51.5107 102.341 51.9911C102.141 52.4716 101.847 52.9076 101.478 53.274C101.108 53.6405 100.67 53.9301 100.188 54.1262C99.7057 54.3224 99.1895 54.4211 98.6691 54.4167V54.4167ZM98.6691 47.9417C98.1747 47.9417 97.6913 48.0883 97.2802 48.363C96.8691 48.6377 96.5486 49.0281 96.3594 49.4849C96.1702 49.9418 96.1207 50.4444 96.2172 50.9294C96.3136 51.4143 96.5517 51.8598 96.9013 52.2094C97.251 52.5591 97.6964 52.7972 98.1814 52.8936C98.6663 52.9901 99.169 52.9406 99.6258 52.7514C100.083 52.5621 100.473 52.2417 100.748 51.8306C101.022 51.4195 101.169 50.9361 101.169 50.4417V47.9417H98.6691Z" fill="#B7B7B7"/>
<path d="M111.619 54.4167C111.099 54.4211 110.583 54.3224 110.1 54.1262C109.618 53.9301 109.18 53.6405 108.81 53.274C108.441 52.9076 108.147 52.4716 107.947 51.9911C107.747 51.5107 107.644 50.9954 107.644 50.475V46.5H111.586C112.631 46.5 113.634 46.9153 114.373 47.6545C115.112 48.3937 115.527 49.3963 115.527 50.4417C115.527 51.4871 115.112 52.4896 114.373 53.2288C113.634 53.9681 112.631 54.3833 111.586 54.3833L111.619 54.4167ZM109.119 47.9417V50.4417C109.117 50.7747 109.182 51.1047 109.309 51.4123C109.437 51.72 109.624 51.9991 109.861 52.2333C110.208 52.6051 110.661 52.862 111.158 52.9696C111.656 53.0773 112.174 53.0307 112.644 52.8359C113.114 52.6412 113.514 52.3076 113.789 51.8798C114.065 51.4519 114.203 50.9502 114.186 50.4417C114.186 49.7786 113.922 49.1427 113.454 48.6739C112.985 48.2051 112.349 47.9417 111.686 47.9417H109.119Z" fill="#B7B7B7"/>
</g>
<path d="M142.31 52.1257V60H137.144V35.6573H142.207V37.2801C143.651 35.9111 145.566 35.15 147.555 35.1544C152.618 35.1544 156.424 39.1087 156.424 44.5715C156.424 50.0343 152.653 54.1714 147.624 54.1714C145.658 54.1865 143.759 53.4554 142.31 52.1257V52.1257ZM146.881 49.3372C147.483 49.3297 148.078 49.2033 148.632 48.9653C149.185 48.7272 149.686 48.3821 150.105 47.9499C150.525 47.5176 150.855 47.0067 151.076 46.4466C151.297 45.8864 151.406 45.288 151.395 44.6858C151.417 44.0782 151.315 43.4726 151.097 42.9054C150.878 42.3382 150.547 41.8211 150.123 41.3854C149.699 40.9497 149.191 40.6044 148.63 40.3702C148.069 40.1361 147.466 40.0179 146.858 40.0229C146.245 40.0049 145.635 40.1138 145.066 40.3429C144.497 40.5721 143.982 40.9165 143.553 41.3544C143.123 41.7923 142.789 42.3144 142.571 42.8877C142.354 43.461 142.257 44.0732 142.287 44.6858C142.267 45.2953 142.371 45.9026 142.592 46.4707C142.814 47.0389 143.148 47.5562 143.576 47.9911C144.003 48.4261 144.515 48.7697 145.079 49.0011C145.643 49.2324 146.249 49.3468 146.858 49.3372H146.881Z" fill="#ECECEA"/>
<path d="M161.213 35.6572L165.247 46.1143L169.236 35.6572H174.836L164.55 59.9999H159.259L162.607 52.16L155.75 35.6572H161.213Z" fill="#ECECEA"/>
<path d="M180.901 53.657H175.735V28H180.901V53.657Z" fill="#ECECEA"/>
<path d="M182.645 44.6418C182.636 42.7452 183.19 40.8886 184.237 39.3074C185.284 37.7263 186.778 36.4916 188.528 35.7601C190.277 35.0285 192.205 34.833 194.066 35.1983C195.927 35.5636 197.638 36.4732 198.981 37.8119C200.325 39.1506 201.241 40.858 201.613 42.7178C201.985 44.5776 201.796 46.5059 201.071 48.2583C200.346 50.0108 199.116 51.5084 197.539 52.5614C195.961 53.6144 194.107 54.1754 192.21 54.1731C190.952 54.1899 189.704 53.9551 188.538 53.4825C187.372 53.0099 186.312 52.309 185.421 51.4211C184.53 50.5331 183.825 49.4759 183.348 48.3117C182.872 47.1475 182.632 45.8998 182.645 44.6418V44.6418ZM192.21 49.4075C192.827 49.408 193.438 49.2836 194.006 49.0419C194.573 48.8001 195.086 48.4459 195.513 48.0006C195.941 47.5553 196.273 47.0281 196.491 46.4509C196.709 45.8736 196.808 45.2582 196.782 44.6418C196.874 43.9935 196.826 43.333 196.641 42.7048C196.456 42.0767 196.138 41.4957 195.709 41.0011C195.28 40.5065 194.749 40.1098 194.154 39.838C193.558 39.5662 192.911 39.4255 192.256 39.4255C191.601 39.4255 190.954 39.5662 190.358 39.838C189.763 40.1098 189.232 40.5065 188.803 41.0011C188.374 41.4957 188.056 42.0767 187.871 42.7048C187.686 43.333 187.638 43.9935 187.73 44.6418C187.704 45.2506 187.8 45.8585 188.013 46.4297C188.225 47.001 188.549 47.5239 188.967 47.968C189.384 48.412 189.886 48.7681 190.443 49.0153C191 49.2625 191.601 49.3958 192.21 49.4075Z" fill="#ECECEA"/>
<path d="M201.955 35.6564H205.212V30.9707H210.343V35.6564H214.915V40.102H210.343V46.8448C210.297 47.1582 210.324 47.4781 210.421 47.7795C210.519 48.0809 210.685 48.3557 210.906 48.5824C211.127 48.8092 211.398 48.9818 211.697 49.0868C211.995 49.1918 212.315 49.2263 212.629 49.1877H214.915V53.6562H211.943C207.543 53.6562 205.235 51.6105 205.235 47.2106V40.102H201.955V35.6564Z" fill="#ECECEA"/>
<path d="M215.443 44.8235C215.428 42.2842 216.418 39.842 218.198 38.0304C219.977 36.2189 222.401 35.1851 224.941 35.155C226.113 35.1271 227.279 35.3363 228.369 35.7701C229.458 36.2039 230.449 36.8534 231.281 37.6794C232.114 38.5055 232.771 39.4912 233.213 40.5774C233.655 41.6636 233.874 42.828 233.855 44.0006C233.855 44.689 233.805 45.3765 233.706 46.0577H220.472C220.637 47.1478 221.191 48.1414 222.031 48.8554C222.871 49.5695 223.941 49.9559 225.043 49.9434C225.75 49.9848 226.452 49.8158 227.063 49.4578C227.673 49.0998 228.163 48.5688 228.472 47.932H233.569C232.723 51.3606 229.455 54.2291 224.655 54.2291C223.426 54.2388 222.208 54.0007 221.073 53.529C219.938 53.0573 218.91 52.3617 218.05 51.4837C217.191 50.6057 216.517 49.5634 216.069 48.4191C215.621 47.2747 215.408 46.0518 215.443 44.8235V44.8235ZM228.563 42.332C228.441 41.4618 227.996 40.6693 227.316 40.1123C226.637 39.5554 225.772 39.2748 224.895 39.3264C223.97 39.3161 223.066 39.6024 222.315 40.1433C221.564 40.6842 221.007 41.4512 220.723 42.332H228.563Z" fill="#ECECEA"/>
</g>
<defs>
<clipPath id="clip0_1_1136">
<rect width="40" height="40" fill="white" transform="translate(85.1441 24)"/>
</clipPath>
</defs>
</svg>
