<svg width="40" height="40" viewBox="0 0 40 40" fill="none" xmlns="http://www.w3.org/2000/svg">
<rect width="40" height="40" rx="8" fill="#3E3E3E"/>
<path fill-rule="evenodd" clip-rule="evenodd" d="M22.5018 9.59439C22.027 9.92059 21.627 10.1982 21.6127 10.2114C21.5744 10.2468 28.1873 18.4708 28.242 18.4558C28.3631 18.4226 30.015 17.261 29.9999 17.2196C29.9721 17.143 23.4272 8.99855 23.3947 9C23.3784 9.00075 22.9766 9.26822 22.5018 9.59439ZM18.5734 13.0646L17.8635 13.8566L17.9922 13.9714C18.1674 14.1277 26.3848 20.4372 26.4131 20.4372C26.4612 20.4372 27.8246 18.8829 27.8106 18.844C27.7979 18.8086 19.3284 12.2727 19.2953 12.2727C19.2887 12.2727 18.9638 12.6291 18.5734 13.0646ZM15.5455 17.4745C15.2927 17.9912 15.1031 18.4292 15.1243 18.4478C15.1969 18.5115 25.1034 22.761 25.1476 22.7474C25.1918 22.7337 26.0716 20.9931 26.0749 20.9128C26.0764 20.8761 16.2703 16.5993 16.077 16.5524C16.0215 16.5389 15.9013 16.7474 15.5455 17.4745ZM14.088 21.2764C13.954 21.8133 13.6635 23.1576 13.6747 23.1888C13.6867 23.2221 24.5099 25.3413 24.5353 25.3152C24.5557 25.2944 25.0018 23.2838 24.9888 23.2717C24.9685 23.2529 14.2499 21.1832 14.1731 21.1832C14.1391 21.1832 14.1008 21.2251 14.088 21.2764ZM9 27.8763V32H18.995H28.99V27.8763V23.7527H27.8695H26.749V26.8402V29.9278H18.995H11.241V26.8402V23.7527H10.1205H9V27.8763ZM13.4372 26.861V27.8971H18.995H24.5528V26.861V25.8249H18.995H13.4372V26.861Z" fill="#B2B2B1"/>
</svg>
