<svg width="40" height="40" viewBox="0 0 40 40" fill="none" xmlns="http://www.w3.org/2000/svg">
<path d="M0 8C0 3.58172 3.58172 0 8 0H32C36.4183 0 40 3.58172 40 8V32C40 36.4183 36.4183 40 32 40H8C3.58172 40 0 36.4183 0 32V8Z" fill="#3E3E3E"/>
<path d="M31.0336 15.2844L28.2024 18.1062C27.6399 24.6594 22.1086 29.75 15.4993 29.75C14.1399 29.75 13.0149 29.5344 12.1618 29.1125C11.4774 28.7656 11.1961 28.4 11.1211 28.2875C11.0591 28.1932 11.0191 28.0862 11.0042 27.9744C10.9892 27.8625 10.9997 27.7487 11.0349 27.6415C11.07 27.5343 11.1289 27.4363 11.2071 27.355C11.2854 27.2737 11.381 27.2111 11.4868 27.1719C11.5055 27.1625 13.718 26.3187 15.1524 24.6969C14.2628 24.0635 13.481 23.2911 12.8368 22.4094C11.5524 20.6656 10.193 17.6375 11.0086 13.1187C11.0343 12.9844 11.0957 12.8595 11.1865 12.7572C11.2772 12.6549 11.394 12.579 11.5243 12.5375C11.655 12.4947 11.795 12.4887 11.9289 12.5201C12.0629 12.5515 12.1856 12.6191 12.2836 12.7156C12.3118 12.7531 15.4336 15.8281 19.2493 16.8219V16.25C19.253 15.6554 19.3737 15.0673 19.6047 14.5193C19.8357 13.9713 20.1723 13.4742 20.5954 13.0563C21.0185 12.6385 21.5197 12.308 22.0705 12.0839C22.6213 11.8597 23.2109 11.7463 23.8055 11.75C24.586 11.7611 25.3502 11.9742 26.0239 12.3685C26.6975 12.7629 27.2575 13.3249 27.6493 14H30.4993C30.6473 13.9995 30.7922 14.0429 30.9157 14.1247C31.0391 14.2064 31.1356 14.3229 31.193 14.4594C31.2471 14.5979 31.2608 14.7489 31.2326 14.8949C31.2044 15.0409 31.1354 15.1759 31.0336 15.2844V15.2844Z" fill="#B2B2B1"/>
</svg>
