<svg width="40" height="41" viewBox="0 0 40 41" fill="none" xmlns="http://www.w3.org/2000/svg">
<rect opacity="0.35" width="40" height="40" rx="4" fill="#8FFFD0"/>
<g opacity="0.8">
<path d="M33.2648 33.3177C33.087 31.2553 31.5936 29.584 29.6023 29.1219V20.0899C29.6023 18.9165 28.6421 17.9563 27.4686 17.9563H26.0464V15.1115C26.0464 15.0049 26.0109 14.8982 25.9752 14.7915L24.5884 12.018C24.2327 11.2711 23.4862 10.8445 22.6684 10.8445L20.7126 10.8448V8.71111C20.7126 8.31995 20.3926 8 20.0015 8C19.6103 8 19.2904 8.31997 19.2904 8.71111V10.8448H17.3346C16.5168 10.8448 15.8057 11.3071 15.4145 12.0182L14.0277 14.7918C13.992 14.8985 13.9565 15.0051 13.9565 15.1118V17.9565H12.5343C11.3609 17.9565 10.4006 18.9167 10.4006 20.0902V28.5887C8.6582 29.4777 7.44927 31.2202 7.27141 33.2469C5.45797 33.3178 4 34.8113 4 36.6249C4 38.474 5.5289 40.0029 7.41377 40.0029H32.5538C34.4385 40.0029 35.9676 38.474 35.9676 36.6249C36.0028 34.9891 34.8294 33.638 33.2648 33.3178L33.2648 33.3177ZM16.6944 12.658C16.8011 12.409 17.0501 12.2669 17.3344 12.2669H22.7037C22.9882 12.2669 23.2015 12.409 23.3436 12.658L24.1971 14.4005H15.8052L16.6944 12.658ZM11.8227 20.0898C11.8227 19.6987 12.1427 19.3787 12.5338 19.3787H13.956V27.9839C13.6715 27.9485 13.4228 27.9127 13.1382 27.9127C12.6759 27.9127 12.2493 27.9482 11.8226 28.0549L11.8227 20.0898ZM22.6326 38.5804H7.4134C6.31089 38.5804 5.42192 37.6914 5.42192 36.6246C5.42192 35.5578 6.31089 34.6688 7.41315 34.6688H7.98215C8.15999 34.6688 8.37331 34.5976 8.51543 34.4555C8.65756 34.3134 8.72874 34.1355 8.69327 33.9222V33.8155V33.6734C8.69327 31.2555 10.6845 29.3352 13.1381 29.3352C14.3116 29.3352 15.4493 29.7976 16.2674 30.6154C16.4807 30.8287 16.8006 30.8644 17.0851 30.7575C17.5475 30.5442 18.0453 30.4018 18.5786 30.4018C20.4277 30.4018 21.9566 31.8598 21.9566 33.6732V33.8511V33.9222C21.9566 34.1001 22.0278 34.3134 22.17 34.4555C22.3121 34.5976 22.4899 34.6688 22.7032 34.6688C23.8055 34.6688 24.6945 35.5578 24.6945 36.6246C24.6238 37.6915 23.7348 38.5804 22.6325 38.5804L22.6326 38.5804ZM24.6238 33.8865C24.2326 33.602 23.806 33.4242 23.3082 33.3175C23.237 32.464 22.9525 31.6817 22.4904 31.0417L22.4902 18.6673C22.4902 18.2761 22.1702 17.9562 21.779 17.9562C21.3879 17.9562 21.0679 18.2761 21.0679 18.6673V29.6905C20.428 29.2993 19.7166 29.0506 18.9343 29.0148V18.6672C18.9343 18.2761 18.6143 17.9561 18.2232 17.9561C17.832 17.9561 17.512 18.2761 17.512 18.6672V29.0859C17.2987 29.1214 17.0854 29.1926 16.9076 29.2638C16.4452 28.8726 15.9119 28.5881 15.3787 28.3393L15.3784 15.8226H24.6237L24.6238 33.8865ZM28.1797 38.5804H26.046V19.3786H27.4683C27.8594 19.3786 28.1794 19.6986 28.1794 20.0898L28.1797 38.5804ZM32.5888 38.5804H29.602V30.5797C30.9176 31.042 31.8777 32.2509 31.8777 33.6732V33.8511V33.9222C31.8777 34.1001 31.9489 34.3134 32.091 34.4555C32.2332 34.5977 32.411 34.6688 32.6243 34.6688C33.7266 34.6688 34.6156 35.5578 34.6156 36.6246C34.5803 37.6915 33.6913 38.5804 32.5888 38.5804L32.5888 38.5804Z" fill="#ECECEA"/>
</g>
</svg>
